<svg xmlns="http://www.w3.org/2000/svg" viewBox="0 0 1280 720" width="100%" height="100%">
<defs><filter id="shadow"><feDropShadow dx="1" dy="2" stdDeviation="3" flood-color="#00000020"/></filter></defs>
<rect width="1280" height="720" fill="#F8FAFC" data-svgc-id="bg" data-svgc-type="text-decoration"/>
<text x="640" y="42" text-anchor="middle" font-family="Arial,Helvetica,sans-serif" font-size="26" font-weight="bold" fill="#1E293B" data-svgc-id="title">论文结构总览</text>
<line x1="520" y1="56" x2="760" y2="56" stroke="#2563EB" stroke-width="3" stroke-linecap="round"/>
<rect x="500" y="70" width="280" height="44" rx="22" fill="#1E293B"/>
<text x="640" y="98" text-anchor="middle" font-family="Arial,Helvetica,sans-serif" font-size="17" font-weight="bold" fill="white">AI产业发展：机遇与挑战</text>
<line x1="640" y1="114" x2="140" y2="180" stroke="#CBD5E1" stroke-width="1.5"/>
<rect x="35" y="180" width="210" height="100" rx="8" fill="white" stroke="#7C3AED" stroke-width="2" filter="url(#shadow)"/>
<rect x="35" y="180" width="210" height="34" rx="8" fill="#7C3AED"/>
<rect x="35" y="204" width="210" height="10" fill="#7C3AED"/>
<text x="140" y="203" text-anchor="middle" font-family="Arial,Helvetica,sans-serif" font-size="14" font-weight="bold" fill="white">引言</text>
<text x="140" y="247" text-anchor="middle" font-family="Arial,Helvetica,sans-serif" font-size="11" fill="#475569">时代背景与核心观点</text>
<line x1="640" y1="114" x2="390" y2="180" stroke="#CBD5E1" stroke-width="1.5"/>
<rect x="285" y="180" width="210" height="100" rx="8" fill="white" stroke="#2563EB" stroke-width="2" filter="url(#shadow)"/>
<rect x="285" y="180" width="210" height="34" rx="8" fill="#2563EB"/>
<rect x="285" y="204" width="210" height="10" fill="#2563EB"/>
<text x="390" y="203" text-anchor="middle" font-family="Arial,Helvetica,sans-serif" font-size="14" font-weight="bold" fill="white">世界格局影响</text>
<text x="390" y="238" text-anchor="middle" font-family="Arial,Helvetica,sans-serif" font-size="11" fill="#475569">技术地缘政治 · 标准规制 ·</text>
<text x="390" y="256" text-anchor="middle" font-family="Arial,Helvetica,sans-serif" font-size="11" fill="#475569">产业链演变</text>
<line x1="640" y1="114" x2="640" y2="180" stroke="#CBD5E1" stroke-width="1.5"/>
<rect x="535" y="180" width="210" height="100" rx="8" fill="white" stroke="#059669" stroke-width="2" filter="url(#shadow)"/>
<rect x="535" y="180" width="210" height="34" rx="8" fill="#059669"/>
<rect x="535" y="204" width="210" height="10" fill="#059669"/>
<text x="640" y="203" text-anchor="middle" font-family="Arial,Helvetica,sans-serif" font-size="14" font-weight="bold" fill="white">发展东风 (优势)</text>
<text x="640" y="247" text-anchor="middle" font-family="Arial,Helvetica,sans-serif" font-size="11" fill="#475569">政策红利 · 规模优势 · 新质生产力</text>
<line x1="640" y1="114" x2="890" y2="180" stroke="#CBD5E1" stroke-width="1.5"/>
<rect x="785" y="180" width="210" height="100" rx="8" fill="white" stroke="#EF4444" stroke-width="2" filter="url(#shadow)"/>
<rect x="785" y="180" width="210" height="34" rx="8" fill="#EF4444"/>
<rect x="785" y="204" width="210" height="10" fill="#EF4444"/>
<text x="890" y="203" text-anchor="middle" font-family="Arial,Helvetica,sans-serif" font-size="14" font-weight="bold" fill="white">卡脖子挑战</text>
<text x="890" y="238" text-anchor="middle" font-family="Arial,Helvetica,sans-serif" font-size="11" fill="#475569">芯片瓶颈 · 绿色算力 · 人才短缺 ·</text>
<text x="890" y="256" text-anchor="middle" font-family="Arial,Helvetica,sans-serif" font-size="11" fill="#475569">AI治理</text>
<line x1="640" y1="114" x2="1140" y2="180" stroke="#CBD5E1" stroke-width="1.5"/>
<rect x="1035" y="180" width="210" height="100" rx="8" fill="white" stroke="#F59E0B" stroke-width="2" filter="url(#shadow)"/>
<rect x="1035" y="180" width="210" height="34" rx="8" fill="#F59E0B"/>
<rect x="1035" y="204" width="210" height="10" fill="#F59E0B"/>
<text x="1140" y="203" text-anchor="middle" font-family="Arial,Helvetica,sans-serif" font-size="14" font-weight="bold" fill="white">青年责任与结语</text>
<text x="1140" y="247" text-anchor="middle" font-family="Arial,Helvetica,sans-serif" font-size="11" fill="#475569">专业素养 · 创新信念 · AI素养</text>
<rect x="155" y="360" width="220" height="80" rx="10" fill="white" stroke="#2563EB" stroke-width="1.5" filter="url(#shadow)"/>
<text x="265" y="398" text-anchor="middle" font-family="Arial,Helvetica,sans-serif" font-size="28" font-weight="bold" fill="#2563EB">9000亿+</text>
<text x="265" y="422" text-anchor="middle" font-family="Arial,Helvetica,sans-serif" font-size="12" fill="#64748B">2024核心产业规模</text>
<rect x="405" y="360" width="220" height="80" rx="10" fill="white" stroke="#059669" stroke-width="1.5" filter="url(#shadow)"/>
<text x="515" y="398" text-anchor="middle" font-family="Arial,Helvetica,sans-serif" font-size="28" font-weight="bold" fill="#059669">6.02亿</text>
<text x="515" y="422" text-anchor="middle" font-family="Arial,Helvetica,sans-serif" font-size="12" fill="#64748B">生成式AI用户</text>
<rect x="655" y="360" width="220" height="80" rx="10" fill="white" stroke="#7C3AED" stroke-width="1.5" filter="url(#shadow)"/>
<text x="765" y="398" text-anchor="middle" font-family="Arial,Helvetica,sans-serif" font-size="28" font-weight="bold" fill="#7C3AED">3.8万+件</text>
<text x="765" y="422" text-anchor="middle" font-family="Arial,Helvetica,sans-serif" font-size="12" fill="#64748B">生成式AI专利 (全球60%+)</text>
<rect x="905" y="360" width="220" height="80" rx="10" fill="white" stroke="#F59E0B" stroke-width="1.5" filter="url(#shadow)"/>
<text x="1015" y="398" text-anchor="middle" font-family="Arial,Helvetica,sans-serif" font-size="28" font-weight="bold" fill="#F59E0B">2.7%</text>
<text x="1015" y="422" text-anchor="middle" font-family="Arial,Helvetica,sans-serif" font-size="12" fill="#64748B">中美大模型差距</text>
<rect x="60" y="490" width="1160" height="70" rx="10" fill="#FEF3C7" stroke="#F59E0B" stroke-width="1"/>
<text x="640" y="520" text-anchor="middle" font-family="Arial,Helvetica,sans-serif" font-size="14" font-weight="bold" fill="#92400E">核心洞察</text>
<text x="640" y="543" text-anchor="middle" font-family="Arial,Helvetica,sans-serif" font-size="13" fill="#A16207">挑战与机遇并存：外部封锁倒逼自主创新，规模优势驱动应用落地，青年力量决定产业未来</text>
<text x="1250" y="704" text-anchor="end" font-family="Arial,Helvetica,sans-serif" font-size="10" fill="#94A3B8" data-svgc-id="footer" data-svgc-type="text-decoration">svg-create</text>
</svg>